<mxfile host="app.diagrams.net" modified="2023-03-22T12:52:57.090Z" agent="5.0 (Windows NT 10.0; Win64; x64) AppleWebKit/537.36 (KHTML, like Gecko) Chrome/111.0.0.0 Safari/537.36" etag="iEAHUDUfhCuKp9FGSI69" version="21.0.10" type="github">
  <diagram name="Page-1" id="nTrpsp-pm2qygXV71zAi">
    <mxGraphModel dx="1313" dy="676" grid="1" gridSize="10" guides="1" tooltips="1" connect="1" arrows="1" fold="1" page="1" pageScale="1" pageWidth="2336" pageHeight="1654" math="0" shadow="0">
      <root>
        <mxCell id="0" />
        <mxCell id="1" parent="0" />
        <mxCell id="Wa3GkqQ6ShVxX3qZaua0-1" value="&lt;p style=&quot;margin:0px;margin-top:4px;text-align:center;&quot;&gt;&lt;i&gt;&amp;lt;&amp;lt;Abstract&amp;gt;&amp;gt;&lt;/i&gt;&lt;br&gt;&lt;b&gt;Player&lt;/b&gt;&lt;/p&gt;&lt;hr size=&quot;1&quot;&gt;&lt;p style=&quot;margin:0px;margin-left:4px;&quot;&gt;+ game: Game&lt;/p&gt;&lt;p style=&quot;margin:0px;margin-left:4px;&quot;&gt;+ pieces: ColoredPiece&lt;/p&gt;&lt;p style=&quot;margin:0px;margin-left:4px;&quot;&gt;+ gameChangeHandle: Event&lt;/p&gt;&lt;hr size=&quot;1&quot;&gt;&lt;p style=&quot;margin:0px;margin-left:4px;&quot;&gt;+ Player(): Void&lt;br&gt;+ onPlayerMove(Move): Void&lt;/p&gt;&lt;p style=&quot;margin:0px;margin-left:4px;&quot;&gt;+ movePiece(Move): Void&lt;/p&gt;&lt;p style=&quot;margin:0px;margin-left:4px;&quot;&gt;+ isChess(): Bool&lt;/p&gt;&lt;p style=&quot;margin:0px;margin-left:4px;&quot;&gt;+ chessFilter(): List&amp;lt;ColoredPiece&amp;gt;&lt;/p&gt;" style="verticalAlign=top;align=left;overflow=fill;fontSize=12;fontFamily=Helvetica;html=1;whiteSpace=wrap;" parent="1" vertex="1">
          <mxGeometry x="1520" y="299.38" width="203" height="176.25" as="geometry" />
        </mxCell>
        <mxCell id="Wa3GkqQ6ShVxX3qZaua0-2" value="Human" style="swimlane;fontStyle=1;align=center;verticalAlign=top;childLayout=stackLayout;horizontal=1;startSize=26;horizontalStack=0;resizeParent=1;resizeParentMax=0;resizeLast=0;collapsible=1;marginBottom=0;whiteSpace=wrap;html=1;" parent="1" vertex="1">
          <mxGeometry x="1267" y="1002.5" width="200" height="120" as="geometry" />
        </mxCell>
        <mxCell id="Wa3GkqQ6ShVxX3qZaua0-3" value="- form: Form" style="text;strokeColor=none;fillColor=none;align=left;verticalAlign=top;spacingLeft=4;spacingRight=4;overflow=hidden;rotatable=0;points=[[0,0.5],[1,0.5]];portConstraint=eastwest;whiteSpace=wrap;html=1;" parent="Wa3GkqQ6ShVxX3qZaua0-2" vertex="1">
          <mxGeometry y="26" width="200" height="26" as="geometry" />
        </mxCell>
        <mxCell id="Wa3GkqQ6ShVxX3qZaua0-4" value="" style="line;strokeWidth=1;fillColor=none;align=left;verticalAlign=middle;spacingTop=-1;spacingLeft=3;spacingRight=3;rotatable=0;labelPosition=right;points=[];portConstraint=eastwest;strokeColor=inherit;" parent="Wa3GkqQ6ShVxX3qZaua0-2" vertex="1">
          <mxGeometry y="52" width="200" height="8" as="geometry" />
        </mxCell>
        <mxCell id="Wa3GkqQ6ShVxX3qZaua0-5" value="+ Human(Form): Void&lt;br&gt;+ onPlayerMove(Move): Void&lt;br&gt;+ movePiece(Move): Void" style="text;strokeColor=none;fillColor=none;align=left;verticalAlign=top;spacingLeft=4;spacingRight=4;overflow=hidden;rotatable=0;points=[[0,0.5],[1,0.5]];portConstraint=eastwest;whiteSpace=wrap;html=1;" parent="Wa3GkqQ6ShVxX3qZaua0-2" vertex="1">
          <mxGeometry y="60" width="200" height="60" as="geometry" />
        </mxCell>
        <mxCell id="Wa3GkqQ6ShVxX3qZaua0-22" value="&lt;p style=&quot;margin:0px;margin-top:4px;text-align:center;&quot;&gt;&lt;i&gt;&amp;lt;&amp;lt;Abstract&amp;gt;&amp;gt;&lt;/i&gt;&lt;br&gt;&lt;b&gt;Piece&lt;/b&gt;&lt;/p&gt;&lt;hr size=&quot;1&quot;&gt;&lt;p style=&quot;margin:0px;margin-left:4px;&quot;&gt;+ position: Position&lt;br&gt;+ pieceName: String&lt;/p&gt;&lt;hr size=&quot;1&quot;&gt;&lt;p style=&quot;margin:0px;margin-left:4px;&quot;&gt;+ getPossibleMoves(): List&amp;lt;MoveTree&amp;gt;&lt;br&gt;+ setPosition(Position): Void&lt;/p&gt;" style="verticalAlign=top;align=left;overflow=fill;fontSize=12;fontFamily=Helvetica;html=1;whiteSpace=wrap;" parent="1" vertex="1">
          <mxGeometry x="682" y="317.5" width="300" height="140" as="geometry" />
        </mxCell>
        <mxCell id="Wa3GkqQ6ShVxX3qZaua0-23" value="&lt;p style=&quot;margin:0px;margin-top:4px;text-align:center;&quot;&gt;&lt;b&gt;King&lt;/b&gt;&lt;/p&gt;&lt;hr size=&quot;1&quot;&gt;&lt;p style=&quot;margin:0px;margin-left:4px;&quot;&gt;+ field: Type&lt;/p&gt;&lt;hr size=&quot;1&quot;&gt;&lt;p style=&quot;margin:0px;margin-left:4px;&quot;&gt;+ method(): Type&lt;/p&gt;" style="verticalAlign=top;align=left;overflow=fill;fontSize=12;fontFamily=Helvetica;html=1;whiteSpace=wrap;" parent="1" vertex="1">
          <mxGeometry x="522" y="502.5" width="160" height="90" as="geometry" />
        </mxCell>
        <mxCell id="Wa3GkqQ6ShVxX3qZaua0-25" value="&lt;p style=&quot;margin:0px;margin-top:4px;text-align:center;&quot;&gt;&lt;b&gt;General&lt;/b&gt;&lt;/p&gt;&lt;hr size=&quot;1&quot;&gt;&lt;p style=&quot;margin:0px;margin-left:4px;&quot;&gt;+ field: Type&lt;/p&gt;&lt;hr size=&quot;1&quot;&gt;&lt;p style=&quot;margin:0px;margin-left:4px;&quot;&gt;+ method(): Type&lt;/p&gt;" style="verticalAlign=top;align=left;overflow=fill;fontSize=12;fontFamily=Helvetica;html=1;whiteSpace=wrap;" parent="1" vertex="1">
          <mxGeometry x="522" y="602.5" width="160" height="90" as="geometry" />
        </mxCell>
        <mxCell id="Wa3GkqQ6ShVxX3qZaua0-27" value="&lt;p style=&quot;margin:0px;margin-top:4px;text-align:center;&quot;&gt;&lt;b&gt;Castle&lt;/b&gt;&lt;/p&gt;&lt;hr size=&quot;1&quot;&gt;&lt;p style=&quot;margin:0px;margin-left:4px;&quot;&gt;+ field: Type&lt;/p&gt;&lt;hr size=&quot;1&quot;&gt;&lt;p style=&quot;margin:0px;margin-left:4px;&quot;&gt;+ method(): Type&lt;/p&gt;" style="verticalAlign=top;align=left;overflow=fill;fontSize=12;fontFamily=Helvetica;html=1;whiteSpace=wrap;" parent="1" vertex="1">
          <mxGeometry x="522" y="702.5" width="160" height="90" as="geometry" />
        </mxCell>
        <mxCell id="Wa3GkqQ6ShVxX3qZaua0-29" value="&lt;p style=&quot;margin:0px;margin-top:4px;text-align:center;&quot;&gt;&lt;b&gt;Knight&lt;/b&gt;&lt;/p&gt;&lt;hr size=&quot;1&quot;&gt;&lt;p style=&quot;margin:0px;margin-left:4px;&quot;&gt;+ field: Type&lt;/p&gt;&lt;hr size=&quot;1&quot;&gt;&lt;p style=&quot;margin:0px;margin-left:4px;&quot;&gt;+ method(): Type&lt;/p&gt;" style="verticalAlign=top;align=left;overflow=fill;fontSize=12;fontFamily=Helvetica;html=1;whiteSpace=wrap;" parent="1" vertex="1">
          <mxGeometry x="522" y="802.5" width="160" height="90" as="geometry" />
        </mxCell>
        <mxCell id="Wa3GkqQ6ShVxX3qZaua0-31" value="&lt;p style=&quot;margin:0px;margin-top:4px;text-align:center;&quot;&gt;&lt;b&gt;Archer&lt;/b&gt;&lt;/p&gt;&lt;hr size=&quot;1&quot;&gt;&lt;p style=&quot;margin:0px;margin-left:4px;&quot;&gt;+ field: Type&lt;/p&gt;&lt;hr size=&quot;1&quot;&gt;&lt;p style=&quot;margin:0px;margin-left:4px;&quot;&gt;+ method(): Type&lt;/p&gt;" style="verticalAlign=top;align=left;overflow=fill;fontSize=12;fontFamily=Helvetica;html=1;whiteSpace=wrap;" parent="1" vertex="1">
          <mxGeometry x="522" y="902.5" width="160" height="90" as="geometry" />
        </mxCell>
        <mxCell id="Wa3GkqQ6ShVxX3qZaua0-33" value="&lt;p style=&quot;margin:0px;margin-top:4px;text-align:center;&quot;&gt;&lt;b&gt;Canon&lt;/b&gt;&lt;/p&gt;&lt;hr size=&quot;1&quot;&gt;&lt;p style=&quot;margin:0px;margin-left:4px;&quot;&gt;+ field: Type&lt;/p&gt;&lt;hr size=&quot;1&quot;&gt;&lt;p style=&quot;margin:0px;margin-left:4px;&quot;&gt;+ method(): Type&lt;/p&gt;" style="verticalAlign=top;align=left;overflow=fill;fontSize=12;fontFamily=Helvetica;html=1;whiteSpace=wrap;" parent="1" vertex="1">
          <mxGeometry x="522" y="1002.5" width="160" height="90" as="geometry" />
        </mxCell>
        <mxCell id="Wa3GkqQ6ShVxX3qZaua0-35" value="&lt;p style=&quot;margin:0px;margin-top:4px;text-align:center;&quot;&gt;&lt;b&gt;Soldier&lt;/b&gt;&lt;/p&gt;&lt;hr size=&quot;1&quot;&gt;&lt;p style=&quot;margin:0px;margin-left:4px;&quot;&gt;+ field: Type&lt;/p&gt;&lt;hr size=&quot;1&quot;&gt;&lt;p style=&quot;margin:0px;margin-left:4px;&quot;&gt;+ method(): Type&lt;/p&gt;" style="verticalAlign=top;align=left;overflow=fill;fontSize=12;fontFamily=Helvetica;html=1;whiteSpace=wrap;" parent="1" vertex="1">
          <mxGeometry x="522" y="1102.5" width="160" height="90" as="geometry" />
        </mxCell>
        <mxCell id="Wa3GkqQ6ShVxX3qZaua0-37" value="&lt;p style=&quot;margin:0px;margin-top:4px;text-align:center;&quot;&gt;&lt;i&gt;&amp;lt;&amp;lt;Abstract&amp;gt;&amp;gt;&lt;/i&gt;&lt;br&gt;&lt;b&gt;ColoredPiece&lt;/b&gt;&lt;/p&gt;&lt;hr size=&quot;1&quot;&gt;&lt;p style=&quot;margin:0px;margin-left:4px;&quot;&gt;+ piece: Piece&lt;br&gt;&lt;/p&gt;&lt;hr size=&quot;1&quot;&gt;&lt;p style=&quot;margin:0px;margin-left:4px;&quot;&gt;+ getPieceColor(): String&lt;br&gt;+ getMoves(ColoredPiece[][]): List&amp;lt;Move&amp;gt;&lt;/p&gt;&lt;p style=&quot;margin:0px;margin-left:4px;&quot;&gt;- validateMove(ColoredPiece[][],&amp;nbsp;MoveTree&lt;span style=&quot;background-color: initial;&quot;&gt;): MoveTree&lt;/span&gt;&lt;/p&gt;" style="verticalAlign=top;align=left;overflow=fill;fontSize=12;fontFamily=Helvetica;html=1;whiteSpace=wrap;" parent="1" vertex="1">
          <mxGeometry x="1100" y="317.51" width="322" height="140" as="geometry" />
        </mxCell>
        <mxCell id="Wa3GkqQ6ShVxX3qZaua0-39" value="&lt;p style=&quot;margin:0px;margin-top:4px;text-align:center;&quot;&gt;&lt;b&gt;WhitePiece&lt;/b&gt;&lt;/p&gt;&lt;hr size=&quot;1&quot;&gt;&lt;p style=&quot;margin:0px;margin-left:4px;&quot;&gt;&amp;nbsp;&lt;/p&gt;&lt;hr size=&quot;1&quot;&gt;&lt;p style=&quot;margin:0px;margin-left:4px;&quot;&gt;+ getPieceColor(): String&lt;br&gt;&lt;/p&gt;" style="verticalAlign=top;align=left;overflow=fill;fontSize=12;fontFamily=Helvetica;html=1;whiteSpace=wrap;" parent="1" vertex="1">
          <mxGeometry x="1077" y="532.5" width="160" height="90" as="geometry" />
        </mxCell>
        <mxCell id="Wa3GkqQ6ShVxX3qZaua0-40" value="&lt;p style=&quot;margin:0px;margin-top:4px;text-align:center;&quot;&gt;&lt;b&gt;BlackPiece&lt;/b&gt;&lt;/p&gt;&lt;hr size=&quot;1&quot;&gt;&lt;p style=&quot;margin:0px;margin-left:4px;&quot;&gt;&amp;nbsp;&lt;/p&gt;&lt;hr size=&quot;1&quot;&gt;&lt;p style=&quot;margin:0px;margin-left:4px;&quot;&gt;+ getPieceColor(): String&lt;br&gt;&lt;/p&gt;" style="verticalAlign=top;align=left;overflow=fill;fontSize=12;fontFamily=Helvetica;html=1;whiteSpace=wrap;" parent="1" vertex="1">
          <mxGeometry x="1287" y="532.5" width="160" height="90" as="geometry" />
        </mxCell>
        <mxCell id="Wa3GkqQ6ShVxX3qZaua0-44" value="&lt;p style=&quot;margin:0px;margin-top:4px;text-align:center;&quot;&gt;&lt;b&gt;MoveTree&lt;/b&gt;&lt;/p&gt;&lt;hr size=&quot;1&quot;&gt;&lt;p style=&quot;margin:0px;margin-left:4px;&quot;&gt;+ List&amp;lt;&lt;span style=&quot;border-color: var(--border-color); text-align: center;&quot;&gt;MoveTree&lt;/span&gt;&amp;gt; moves&lt;/p&gt;&lt;p style=&quot;margin:0px;margin-left:4px;&quot;&gt;+ List&amp;lt;Move&amp;gt;&lt;/p&gt;&lt;hr size=&quot;1&quot;&gt;&lt;p style=&quot;margin:0px;margin-left:4px;&quot;&gt;+ getMoves(): List&amp;lt;Move&amp;gt;&lt;/p&gt;" style="verticalAlign=top;align=left;overflow=fill;fontSize=12;fontFamily=Helvetica;html=1;whiteSpace=wrap;" parent="1" vertex="1">
          <mxGeometry x="350" y="330.63" width="190" height="113.75" as="geometry" />
        </mxCell>
        <mxCell id="Vi_wcE8HfIReCXYGu_xj-1" value="&lt;p style=&quot;margin:0px;margin-top:4px;text-align:center;&quot;&gt;&lt;b&gt;Game&lt;/b&gt;&lt;/p&gt;&lt;hr size=&quot;1&quot;&gt;&lt;p style=&quot;margin:0px;margin-left:4px;&quot;&gt;- gameTable: ColoredPiece[][]&lt;/p&gt;&lt;p style=&quot;margin:0px;margin-left:4px;&quot;&gt;+ playerOne: Player&lt;/p&gt;&lt;p style=&quot;margin:0px;margin-left:4px;&quot;&gt;+ playerTwo: Player&lt;/p&gt;&lt;hr size=&quot;1&quot;&gt;&lt;p style=&quot;margin:0px;margin-left:4px;&quot;&gt;+ Game(Player, Player): Void&lt;/p&gt;&lt;p style=&quot;margin:0px;margin-left:4px;&quot;&gt;+ movePiece(Player, Move): Void&lt;/p&gt;&lt;p style=&quot;margin:0px;margin-left:4px;&quot;&gt;- addPiecesToTable(List&amp;lt;ColoredPiece&amp;gt;): Void&lt;/p&gt;" style="verticalAlign=top;align=left;overflow=fill;fontSize=12;fontFamily=Helvetica;html=1;whiteSpace=wrap;" parent="1" vertex="1">
          <mxGeometry x="1929" y="312.5" width="270" height="150" as="geometry" />
        </mxCell>
        <mxCell id="Vi_wcE8HfIReCXYGu_xj-2" value="" style="endArrow=diamondThin;endFill=0;endSize=24;html=1;rounded=0;entryX=0;entryY=0.5;entryDx=0;entryDy=0;exitX=1;exitY=0.5;exitDx=0;exitDy=0;edgeStyle=orthogonalEdgeStyle;" parent="1" source="Wa3GkqQ6ShVxX3qZaua0-1" target="Vi_wcE8HfIReCXYGu_xj-1" edge="1">
          <mxGeometry width="160" relative="1" as="geometry">
            <mxPoint x="1817" y="502.5" as="sourcePoint" />
            <mxPoint x="1977" y="502.5" as="targetPoint" />
          </mxGeometry>
        </mxCell>
        <mxCell id="Vi_wcE8HfIReCXYGu_xj-3" value="Extends" style="endArrow=block;endSize=16;endFill=0;html=1;rounded=0;entryX=0.5;entryY=1;entryDx=0;entryDy=0;edgeStyle=orthogonalEdgeStyle;exitX=1;exitY=0.5;exitDx=0;exitDy=0;" parent="1" source="Wa3GkqQ6ShVxX3qZaua0-2" target="Wa3GkqQ6ShVxX3qZaua0-1" edge="1">
          <mxGeometry x="-0.7761" width="160" relative="1" as="geometry">
            <mxPoint x="1560" y="990" as="sourcePoint" />
            <mxPoint x="1757" y="642.5" as="targetPoint" />
            <mxPoint as="offset" />
          </mxGeometry>
        </mxCell>
        <mxCell id="Vi_wcE8HfIReCXYGu_xj-4" value="Extends" style="endArrow=block;endSize=16;endFill=0;html=1;rounded=0;entryX=0.5;entryY=1;entryDx=0;entryDy=0;exitX=0;exitY=0.5;exitDx=0;exitDy=0;edgeStyle=orthogonalEdgeStyle;" parent="1" source="Vi_wcE8HfIReCXYGu_xj-7" target="Wa3GkqQ6ShVxX3qZaua0-1" edge="1">
          <mxGeometry x="-0.4924" width="160" relative="1" as="geometry">
            <mxPoint x="1747" y="691.5" as="sourcePoint" />
            <mxPoint x="1597" y="533.5" as="targetPoint" />
            <mxPoint as="offset" />
          </mxGeometry>
        </mxCell>
        <mxCell id="Vi_wcE8HfIReCXYGu_xj-5" value="Extends" style="endArrow=block;endSize=16;endFill=0;html=1;rounded=0;entryX=0.5;entryY=1;entryDx=0;entryDy=0;edgeStyle=orthogonalEdgeStyle;exitX=0;exitY=0.5;exitDx=0;exitDy=0;" parent="1" source="Vi_wcE8HfIReCXYGu_xj-11" target="Wa3GkqQ6ShVxX3qZaua0-1" edge="1">
          <mxGeometry x="-0.7483" width="160" relative="1" as="geometry">
            <mxPoint x="1727" y="812.5" as="sourcePoint" />
            <mxPoint x="1632" y="472.5" as="targetPoint" />
            <mxPoint as="offset" />
          </mxGeometry>
        </mxCell>
        <mxCell id="Vi_wcE8HfIReCXYGu_xj-6" value="Extends" style="endArrow=block;endSize=16;endFill=0;html=1;rounded=0;entryX=0.5;entryY=1;entryDx=0;entryDy=0;edgeStyle=orthogonalEdgeStyle;exitX=0;exitY=0.5;exitDx=0;exitDy=0;" parent="1" source="Vi_wcE8HfIReCXYGu_xj-15" target="Wa3GkqQ6ShVxX3qZaua0-1" edge="1">
          <mxGeometry x="-0.8589" width="160" relative="1" as="geometry">
            <mxPoint x="1727" y="962.5" as="sourcePoint" />
            <mxPoint x="1632" y="472.5" as="targetPoint" />
            <mxPoint as="offset" />
          </mxGeometry>
        </mxCell>
        <mxCell id="Vi_wcE8HfIReCXYGu_xj-7" value="AI" style="swimlane;fontStyle=1;align=center;verticalAlign=top;childLayout=stackLayout;horizontal=1;startSize=26;horizontalStack=0;resizeParent=1;resizeParentMax=0;resizeLast=0;collapsible=1;marginBottom=0;whiteSpace=wrap;html=1;" parent="1" vertex="1">
          <mxGeometry x="1729" y="497.5" width="190" height="110" as="geometry" />
        </mxCell>
        <mxCell id="Vi_wcE8HfIReCXYGu_xj-8" value="&amp;nbsp;" style="text;strokeColor=none;fillColor=none;align=left;verticalAlign=top;spacingLeft=4;spacingRight=4;overflow=hidden;rotatable=0;points=[[0,0.5],[1,0.5]];portConstraint=eastwest;whiteSpace=wrap;html=1;" parent="Vi_wcE8HfIReCXYGu_xj-7" vertex="1">
          <mxGeometry y="26" width="190" height="26" as="geometry" />
        </mxCell>
        <mxCell id="Vi_wcE8HfIReCXYGu_xj-9" value="" style="line;strokeWidth=1;fillColor=none;align=left;verticalAlign=middle;spacingTop=-1;spacingLeft=3;spacingRight=3;rotatable=0;labelPosition=right;points=[];portConstraint=eastwest;strokeColor=inherit;" parent="Vi_wcE8HfIReCXYGu_xj-7" vertex="1">
          <mxGeometry y="52" width="190" height="8" as="geometry" />
        </mxCell>
        <mxCell id="Vi_wcE8HfIReCXYGu_xj-10" value="+ onPlayerMove(Move): Void&lt;br&gt;+ movePiece(Move): Void" style="text;strokeColor=none;fillColor=none;align=left;verticalAlign=top;spacingLeft=4;spacingRight=4;overflow=hidden;rotatable=0;points=[[0,0.5],[1,0.5]];portConstraint=eastwest;whiteSpace=wrap;html=1;" parent="Vi_wcE8HfIReCXYGu_xj-7" vertex="1">
          <mxGeometry y="60" width="190" height="50" as="geometry" />
        </mxCell>
        <mxCell id="Vi_wcE8HfIReCXYGu_xj-11" value="Server" style="swimlane;fontStyle=1;align=center;verticalAlign=top;childLayout=stackLayout;horizontal=1;startSize=26;horizontalStack=0;resizeParent=1;resizeParentMax=0;resizeLast=0;collapsible=1;marginBottom=0;whiteSpace=wrap;html=1;" parent="1" vertex="1">
          <mxGeometry x="1729" y="730" width="190" height="110" as="geometry" />
        </mxCell>
        <mxCell id="Vi_wcE8HfIReCXYGu_xj-12" value="&amp;nbsp;" style="text;strokeColor=none;fillColor=none;align=left;verticalAlign=top;spacingLeft=4;spacingRight=4;overflow=hidden;rotatable=0;points=[[0,0.5],[1,0.5]];portConstraint=eastwest;whiteSpace=wrap;html=1;" parent="Vi_wcE8HfIReCXYGu_xj-11" vertex="1">
          <mxGeometry y="26" width="190" height="26" as="geometry" />
        </mxCell>
        <mxCell id="Vi_wcE8HfIReCXYGu_xj-13" value="" style="line;strokeWidth=1;fillColor=none;align=left;verticalAlign=middle;spacingTop=-1;spacingLeft=3;spacingRight=3;rotatable=0;labelPosition=right;points=[];portConstraint=eastwest;strokeColor=inherit;" parent="Vi_wcE8HfIReCXYGu_xj-11" vertex="1">
          <mxGeometry y="52" width="190" height="8" as="geometry" />
        </mxCell>
        <mxCell id="Vi_wcE8HfIReCXYGu_xj-14" value="+ onPlayerMove(Move): Void&lt;br&gt;+ movePiece(Move): Void" style="text;strokeColor=none;fillColor=none;align=left;verticalAlign=top;spacingLeft=4;spacingRight=4;overflow=hidden;rotatable=0;points=[[0,0.5],[1,0.5]];portConstraint=eastwest;whiteSpace=wrap;html=1;" parent="Vi_wcE8HfIReCXYGu_xj-11" vertex="1">
          <mxGeometry y="60" width="190" height="50" as="geometry" />
        </mxCell>
        <mxCell id="Vi_wcE8HfIReCXYGu_xj-15" value="Client" style="swimlane;fontStyle=1;align=center;verticalAlign=top;childLayout=stackLayout;horizontal=1;startSize=26;horizontalStack=0;resizeParent=1;resizeParentMax=0;resizeLast=0;collapsible=1;marginBottom=0;whiteSpace=wrap;html=1;" parent="1" vertex="1">
          <mxGeometry x="1729" y="1007.5" width="190" height="110" as="geometry" />
        </mxCell>
        <mxCell id="Vi_wcE8HfIReCXYGu_xj-16" value="&amp;nbsp;" style="text;strokeColor=none;fillColor=none;align=left;verticalAlign=top;spacingLeft=4;spacingRight=4;overflow=hidden;rotatable=0;points=[[0,0.5],[1,0.5]];portConstraint=eastwest;whiteSpace=wrap;html=1;" parent="Vi_wcE8HfIReCXYGu_xj-15" vertex="1">
          <mxGeometry y="26" width="190" height="26" as="geometry" />
        </mxCell>
        <mxCell id="Vi_wcE8HfIReCXYGu_xj-17" value="" style="line;strokeWidth=1;fillColor=none;align=left;verticalAlign=middle;spacingTop=-1;spacingLeft=3;spacingRight=3;rotatable=0;labelPosition=right;points=[];portConstraint=eastwest;strokeColor=inherit;" parent="Vi_wcE8HfIReCXYGu_xj-15" vertex="1">
          <mxGeometry y="52" width="190" height="8" as="geometry" />
        </mxCell>
        <mxCell id="Vi_wcE8HfIReCXYGu_xj-18" value="+ onPlayerMove(Move): Void&lt;br&gt;+ movePiece(Move): Void" style="text;strokeColor=none;fillColor=none;align=left;verticalAlign=top;spacingLeft=4;spacingRight=4;overflow=hidden;rotatable=0;points=[[0,0.5],[1,0.5]];portConstraint=eastwest;whiteSpace=wrap;html=1;" parent="Vi_wcE8HfIReCXYGu_xj-15" vertex="1">
          <mxGeometry y="60" width="190" height="50" as="geometry" />
        </mxCell>
        <mxCell id="Vi_wcE8HfIReCXYGu_xj-19" value="" style="endArrow=diamondThin;endFill=0;endSize=24;html=1;rounded=0;entryX=0;entryY=0.5;entryDx=0;entryDy=0;exitX=1;exitY=0.5;exitDx=0;exitDy=0;edgeStyle=orthogonalEdgeStyle;" parent="1" source="Wa3GkqQ6ShVxX3qZaua0-37" target="Wa3GkqQ6ShVxX3qZaua0-1" edge="1">
          <mxGeometry width="160" relative="1" as="geometry">
            <mxPoint x="1062" y="712.5" as="sourcePoint" />
            <mxPoint x="1222" y="712.5" as="targetPoint" />
          </mxGeometry>
        </mxCell>
        <mxCell id="Vi_wcE8HfIReCXYGu_xj-20" value="Extends" style="endArrow=block;endSize=16;endFill=0;html=1;rounded=0;exitX=0.5;exitY=0;exitDx=0;exitDy=0;entryX=0.5;entryY=1;entryDx=0;entryDy=0;edgeStyle=orthogonalEdgeStyle;" parent="1" source="Wa3GkqQ6ShVxX3qZaua0-39" target="Wa3GkqQ6ShVxX3qZaua0-37" edge="1">
          <mxGeometry width="160" relative="1" as="geometry">
            <mxPoint x="1072" y="462.5" as="sourcePoint" />
            <mxPoint x="1232" y="462.5" as="targetPoint" />
          </mxGeometry>
        </mxCell>
        <mxCell id="Vi_wcE8HfIReCXYGu_xj-21" value="Extends" style="endArrow=block;endSize=16;endFill=0;html=1;rounded=0;exitX=0.5;exitY=0;exitDx=0;exitDy=0;entryX=0.5;entryY=1;entryDx=0;entryDy=0;edgeStyle=orthogonalEdgeStyle;" parent="1" source="Wa3GkqQ6ShVxX3qZaua0-40" target="Wa3GkqQ6ShVxX3qZaua0-37" edge="1">
          <mxGeometry width="160" relative="1" as="geometry">
            <mxPoint x="1092" y="542.5" as="sourcePoint" />
            <mxPoint x="1207" y="467.5" as="targetPoint" />
          </mxGeometry>
        </mxCell>
        <mxCell id="Vi_wcE8HfIReCXYGu_xj-23" value="" style="endArrow=diamondThin;endFill=0;endSize=24;html=1;rounded=0;entryX=0;entryY=0.5;entryDx=0;entryDy=0;exitX=1;exitY=0.5;exitDx=0;exitDy=0;edgeStyle=orthogonalEdgeStyle;" parent="1" source="Wa3GkqQ6ShVxX3qZaua0-22" target="Wa3GkqQ6ShVxX3qZaua0-37" edge="1">
          <mxGeometry width="160" relative="1" as="geometry">
            <mxPoint x="962" y="432.5" as="sourcePoint" />
            <mxPoint x="1122" y="432.5" as="targetPoint" />
          </mxGeometry>
        </mxCell>
        <mxCell id="Vi_wcE8HfIReCXYGu_xj-24" value="Extends" style="endArrow=block;endSize=16;endFill=0;html=1;rounded=0;entryX=0.5;entryY=1;entryDx=0;entryDy=0;exitX=1;exitY=0.5;exitDx=0;exitDy=0;edgeStyle=orthogonalEdgeStyle;" parent="1" source="Wa3GkqQ6ShVxX3qZaua0-23" target="Wa3GkqQ6ShVxX3qZaua0-22" edge="1">
          <mxGeometry x="-0.3333" width="160" relative="1" as="geometry">
            <mxPoint x="682" y="492.5" as="sourcePoint" />
            <mxPoint x="842" y="492.5" as="targetPoint" />
            <mxPoint as="offset" />
          </mxGeometry>
        </mxCell>
        <mxCell id="Vi_wcE8HfIReCXYGu_xj-25" value="Extends" style="endArrow=block;endSize=16;endFill=0;html=1;rounded=0;entryX=0.5;entryY=1;entryDx=0;entryDy=0;exitX=1;exitY=0.5;exitDx=0;exitDy=0;edgeStyle=orthogonalEdgeStyle;" parent="1" source="Wa3GkqQ6ShVxX3qZaua0-25" target="Wa3GkqQ6ShVxX3qZaua0-22" edge="1">
          <mxGeometry x="-0.5294" width="160" relative="1" as="geometry">
            <mxPoint x="692" y="557.5" as="sourcePoint" />
            <mxPoint x="842" y="467.5" as="targetPoint" />
            <mxPoint as="offset" />
          </mxGeometry>
        </mxCell>
        <mxCell id="Vi_wcE8HfIReCXYGu_xj-26" value="Extends" style="endArrow=block;endSize=16;endFill=0;html=1;rounded=0;entryX=0.5;entryY=1;entryDx=0;entryDy=0;exitX=1;exitY=0.5;exitDx=0;exitDy=0;edgeStyle=orthogonalEdgeStyle;" parent="1" source="Wa3GkqQ6ShVxX3qZaua0-27" target="Wa3GkqQ6ShVxX3qZaua0-22" edge="1">
          <mxGeometry x="-0.6364" width="160" relative="1" as="geometry">
            <mxPoint x="702" y="567.5" as="sourcePoint" />
            <mxPoint x="852" y="477.5" as="targetPoint" />
            <mxPoint as="offset" />
          </mxGeometry>
        </mxCell>
        <mxCell id="Vi_wcE8HfIReCXYGu_xj-27" value="Extends" style="endArrow=block;endSize=16;endFill=0;html=1;rounded=0;entryX=0.5;entryY=1;entryDx=0;entryDy=0;exitX=1;exitY=0.5;exitDx=0;exitDy=0;edgeStyle=orthogonalEdgeStyle;" parent="1" source="Wa3GkqQ6ShVxX3qZaua0-29" target="Wa3GkqQ6ShVxX3qZaua0-22" edge="1">
          <mxGeometry x="-0.7037" width="160" relative="1" as="geometry">
            <mxPoint x="712" y="577.5" as="sourcePoint" />
            <mxPoint x="862" y="487.5" as="targetPoint" />
            <mxPoint as="offset" />
          </mxGeometry>
        </mxCell>
        <mxCell id="Vi_wcE8HfIReCXYGu_xj-28" value="Extends" style="endArrow=block;endSize=16;endFill=0;html=1;rounded=0;entryX=0.5;entryY=1;entryDx=0;entryDy=0;exitX=1;exitY=0.5;exitDx=0;exitDy=0;edgeStyle=orthogonalEdgeStyle;" parent="1" source="Wa3GkqQ6ShVxX3qZaua0-31" target="Wa3GkqQ6ShVxX3qZaua0-22" edge="1">
          <mxGeometry x="-0.75" width="160" relative="1" as="geometry">
            <mxPoint x="722" y="587.5" as="sourcePoint" />
            <mxPoint x="872" y="497.5" as="targetPoint" />
            <mxPoint as="offset" />
          </mxGeometry>
        </mxCell>
        <mxCell id="Vi_wcE8HfIReCXYGu_xj-29" value="Extends" style="endArrow=block;endSize=16;endFill=0;html=1;rounded=0;entryX=0.5;entryY=1;entryDx=0;entryDy=0;exitX=1;exitY=0.5;exitDx=0;exitDy=0;edgeStyle=orthogonalEdgeStyle;" parent="1" source="Wa3GkqQ6ShVxX3qZaua0-33" target="Wa3GkqQ6ShVxX3qZaua0-22" edge="1">
          <mxGeometry x="-0.7838" width="160" relative="1" as="geometry">
            <mxPoint x="692" y="957.5" as="sourcePoint" />
            <mxPoint x="842" y="467.5" as="targetPoint" />
            <mxPoint as="offset" />
          </mxGeometry>
        </mxCell>
        <mxCell id="Vi_wcE8HfIReCXYGu_xj-30" value="Extends" style="endArrow=block;endSize=16;endFill=0;html=1;rounded=0;entryX=0.5;entryY=1;entryDx=0;entryDy=0;exitX=1;exitY=0.5;exitDx=0;exitDy=0;edgeStyle=orthogonalEdgeStyle;" parent="1" source="Wa3GkqQ6ShVxX3qZaua0-35" target="Wa3GkqQ6ShVxX3qZaua0-22" edge="1">
          <mxGeometry x="-0.8095" width="160" relative="1" as="geometry">
            <mxPoint x="702" y="967.5" as="sourcePoint" />
            <mxPoint x="852" y="477.5" as="targetPoint" />
            <mxPoint as="offset" />
          </mxGeometry>
        </mxCell>
        <mxCell id="Vi_wcE8HfIReCXYGu_xj-31" value="Use" style="endArrow=open;endSize=12;dashed=1;html=1;rounded=0;entryX=1;entryY=0.5;entryDx=0;entryDy=0;exitX=0;exitY=0.5;exitDx=0;exitDy=0;edgeStyle=orthogonalEdgeStyle;" parent="1" source="Wa3GkqQ6ShVxX3qZaua0-22" target="Wa3GkqQ6ShVxX3qZaua0-44" edge="1">
          <mxGeometry width="160" relative="1" as="geometry">
            <mxPoint x="502" y="442.5" as="sourcePoint" />
            <mxPoint x="662" y="442.5" as="targetPoint" />
          </mxGeometry>
        </mxCell>
        <mxCell id="Vi_wcE8HfIReCXYGu_xj-34" value="&lt;p style=&quot;margin:0px;margin-top:4px;text-align:center;&quot;&gt;&lt;i&gt;&amp;lt;&amp;lt;Abstract&amp;gt;&amp;gt;&lt;/i&gt;&lt;br&gt;&lt;b&gt;Move&lt;/b&gt;&lt;/p&gt;&lt;hr size=&quot;1&quot;&gt;&lt;p style=&quot;margin:0px;margin-left:4px;&quot;&gt;&lt;span style=&quot;background-color: initial;&quot;&gt;+ piece: ColoredPiece&lt;/span&gt;&lt;br&gt;&lt;/p&gt;&lt;p style=&quot;margin:0px;margin-left:4px;&quot;&gt;+ to: Position&lt;/p&gt;&lt;hr size=&quot;1&quot;&gt;&lt;p style=&quot;margin:0px;margin-left:4px;&quot;&gt;+ getMoveColor(): String&lt;/p&gt;" style="verticalAlign=top;align=left;overflow=fill;fontSize=12;fontFamily=Helvetica;html=1;whiteSpace=wrap;" parent="1" vertex="1">
          <mxGeometry x="820" y="80" width="190" height="140" as="geometry" />
        </mxCell>
        <mxCell id="Vi_wcE8HfIReCXYGu_xj-35" value="&lt;p style=&quot;margin:0px;margin-top:4px;text-align:center;&quot;&gt;&lt;b&gt;NormalMove&lt;/b&gt;&lt;/p&gt;&lt;hr size=&quot;1&quot;&gt;&lt;p style=&quot;margin:0px;margin-left:4px;&quot;&gt;- color: String&lt;/p&gt;&lt;hr size=&quot;1&quot;&gt;&lt;p style=&quot;margin:0px;margin-left:4px;&quot;&gt;+ getMoveColor(): String&lt;br&gt;&lt;/p&gt;" style="verticalAlign=top;align=left;overflow=fill;fontSize=12;fontFamily=Helvetica;html=1;whiteSpace=wrap;" parent="1" vertex="1">
          <mxGeometry x="1112" y="50" width="160" height="90" as="geometry" />
        </mxCell>
        <mxCell id="Vi_wcE8HfIReCXYGu_xj-36" value="&lt;p style=&quot;margin:0px;margin-top:4px;text-align:center;&quot;&gt;&lt;b&gt;OffensiveMove&lt;/b&gt;&lt;/p&gt;&lt;hr size=&quot;1&quot;&gt;&lt;p style=&quot;margin:0px;margin-left:4px;&quot;&gt;- color: String&lt;/p&gt;&lt;hr size=&quot;1&quot;&gt;&lt;p style=&quot;margin:0px;margin-left:4px;&quot;&gt;+ getMoveColor(): String&lt;br&gt;&lt;/p&gt;" style="verticalAlign=top;align=left;overflow=fill;fontSize=12;fontFamily=Helvetica;html=1;whiteSpace=wrap;" parent="1" vertex="1">
          <mxGeometry x="1112" y="160" width="160" height="90" as="geometry" />
        </mxCell>
        <mxCell id="Vi_wcE8HfIReCXYGu_xj-40" value="Use" style="endArrow=open;endSize=12;dashed=1;html=1;rounded=0;exitX=0.5;exitY=1;exitDx=0;exitDy=0;edgeStyle=orthogonalEdgeStyle;" parent="1" source="Vi_wcE8HfIReCXYGu_xj-34" target="Wa3GkqQ6ShVxX3qZaua0-22" edge="1">
          <mxGeometry width="160" relative="1" as="geometry">
            <mxPoint x="1130" y="370" as="sourcePoint" />
            <mxPoint x="1290" y="370" as="targetPoint" />
          </mxGeometry>
        </mxCell>
        <mxCell id="Vi_wcE8HfIReCXYGu_xj-41" value="Extends" style="endArrow=block;endSize=16;endFill=0;html=1;rounded=0;entryX=1;entryY=0.5;entryDx=0;entryDy=0;exitX=0;exitY=0.5;exitDx=0;exitDy=0;edgeStyle=orthogonalEdgeStyle;" parent="1" source="Vi_wcE8HfIReCXYGu_xj-35" target="Vi_wcE8HfIReCXYGu_xj-34" edge="1">
          <mxGeometry width="160" relative="1" as="geometry">
            <mxPoint x="782" y="220" as="sourcePoint" />
            <mxPoint x="942" y="220" as="targetPoint" />
          </mxGeometry>
        </mxCell>
        <mxCell id="Vi_wcE8HfIReCXYGu_xj-42" value="Extends" style="endArrow=block;endSize=16;endFill=0;html=1;rounded=0;entryX=1;entryY=0.5;entryDx=0;entryDy=0;exitX=0;exitY=0.5;exitDx=0;exitDy=0;edgeStyle=orthogonalEdgeStyle;" parent="1" source="Vi_wcE8HfIReCXYGu_xj-36" target="Vi_wcE8HfIReCXYGu_xj-34" edge="1">
          <mxGeometry width="160" relative="1" as="geometry">
            <mxPoint x="1122" y="105" as="sourcePoint" />
            <mxPoint x="1020" y="130" as="targetPoint" />
          </mxGeometry>
        </mxCell>
        <mxCell id="Vi_wcE8HfIReCXYGu_xj-43" value="Use" style="endArrow=open;endSize=12;dashed=1;html=1;rounded=0;edgeStyle=orthogonalEdgeStyle;" parent="1" source="Vi_wcE8HfIReCXYGu_xj-34" target="Wa3GkqQ6ShVxX3qZaua0-44" edge="1">
          <mxGeometry width="160" relative="1" as="geometry">
            <mxPoint x="700" y="184.51999999999998" as="sourcePoint" />
            <mxPoint x="860" y="184.51999999999998" as="targetPoint" />
          </mxGeometry>
        </mxCell>
        <mxCell id="Vi_wcE8HfIReCXYGu_xj-44" value="&lt;p style=&quot;margin:0px;margin-top:4px;text-align:center;&quot;&gt;&lt;i&gt;&amp;lt;&amp;lt;Interface&amp;gt;&amp;gt;&lt;/i&gt;&lt;br&gt;&lt;b&gt;IHumanInterface&lt;/b&gt;&lt;/p&gt;&lt;hr size=&quot;1&quot;&gt;&lt;p style=&quot;margin:0px;margin-left:4px;&quot;&gt;&amp;nbsp;&lt;/p&gt;&lt;hr size=&quot;1&quot;&gt;&lt;p style=&quot;margin:0px;margin-left:4px;&quot;&gt;+ method1(Type): Type&lt;br&gt;+ method2(Type, Type): Type&lt;/p&gt;" style="verticalAlign=top;align=left;overflow=fill;fontSize=12;fontFamily=Helvetica;html=1;whiteSpace=wrap;" parent="1" vertex="1">
          <mxGeometry x="1272" y="1210" width="190" height="107.5" as="geometry" />
        </mxCell>
        <mxCell id="Vi_wcE8HfIReCXYGu_xj-45" value="Use" style="endArrow=open;endSize=12;dashed=1;html=1;rounded=0;entryX=0.5;entryY=0;entryDx=0;entryDy=0;edgeStyle=orthogonalEdgeStyle;" parent="1" source="Wa3GkqQ6ShVxX3qZaua0-2" target="Vi_wcE8HfIReCXYGu_xj-44" edge="1">
          <mxGeometry width="160" relative="1" as="geometry">
            <mxPoint x="1338" y="1225.5" as="sourcePoint" />
            <mxPoint x="1498" y="1225.5" as="targetPoint" />
          </mxGeometry>
        </mxCell>
      </root>
    </mxGraphModel>
  </diagram>
</mxfile>
